<?xml version="1.0" encoding="UTF-8"?>
<svg id="Layer_1" data-name="Layer 1" xmlns="http://www.w3.org/2000/svg" viewBox="0 0 255.12 170.08">
  <defs>
    <style>
      .cls-1 {
        fill: #2256a6;
      }
    </style>
  </defs>
  <path class="cls-1" d="M85.04,85.04c0-31.47,17.11-58.93,42.52-73.63C115.05,4.16,100.53,0,85.04,0,38.07,0,0,38.07,0,85.04s38.07,85.04,85.04,85.04c15.49,0,30.01-4.16,42.52-11.41-25.41-14.71-42.52-42.16-42.52-73.63Z"/>
  <path class="cls-1" d="M170.08,0c-15.49,0-30.01,4.16-42.52,11.41,25.41,14.71,42.52,42.16,42.52,73.63s-17.11,58.93-42.52,73.63c12.51,7.24,27.02,11.41,42.52,11.41,46.97,0,85.04-38.07,85.04-85.04S217.04,0,170.08,0Z"/>
</svg>